<svg version="1.2" baseProfile="tiny-ps" xmlns="http://www.w3.org/2000/svg" viewBox="0 0 512 512" width="512" height="512">
	<title>barcode(1)-svg</title>
	<style>
		tspan { white-space:pre }
		.shp0 { fill: #34f5c5 } 
	</style>
	<g id="Layer">
		<g id="Layer">
			<path id="Layer" fill-rule="evenodd" class="shp0" d="M454.3 417.87C472.11 433.52 472.57 461.79 456.08 478.68C439.51 495.66 411.1 494.72 395.25 476.89L307.8 381.61C292.77 389.03 275.87 393.22 258 393.22C195.81 393.22 145.21 342.62 145.21 280.43C145.21 267.09 147.54 254.29 151.81 242.4L151.81 74.09C151.81 68.57 156.29 64.09 161.81 64.09C167.34 64.09 171.81 68.57 171.81 74.09L171.81 207.76C180.4 197.6 190.74 188.96 202.38 182.34L202.38 74.09C202.38 68.57 206.85 64.09 212.38 64.09C217.9 64.09 222.38 68.57 222.38 74.09L222.38 173.41C232.05 170.18 242.3 168.23 252.94 167.76L252.94 74.09C252.94 68.57 257.41 64.09 262.94 64.09C268.46 64.09 272.94 68.57 272.94 74.09L272.94 168.63C281.91 169.82 290.55 172.08 298.74 175.26L298.74 74.1C298.74 68.58 303.22 64.1 308.74 64.1L358.41 64.1C363.93 64.1 368.41 68.58 368.41 74.1L368.41 257.35C369.97 264.8 370.79 272.52 370.79 280.43C370.79 298.39 366.56 315.38 359.06 330.47L454.3 417.87ZM372.66 370.74L348.39 347.9C341.85 356.64 334.03 364.45 325.26 370.97L348.13 395.27L372.66 370.74ZM318.74 185.39C330.3 192.79 340.33 202.17 348.41 212.99L348.41 84.1L318.74 84.1L318.74 185.39ZM165.21 280.43C165.21 331.59 206.84 373.22 258 373.22C309.16 373.22 350.79 331.59 350.79 280.43C350.79 229.94 308.51 187.64 258 187.64C206.84 187.64 165.21 229.27 165.21 280.43ZM441.94 464.54C450.84 455.63 450.1 441.13 440.94 432.76L387.37 384.32L361.71 409.98L410.15 463.54C418.4 472.83 433.13 473.34 441.94 464.54Z" />
			<path id="Layer" class="shp0" d="M107.87 64.09L58.2 64.09C52.68 64.09 48.2 68.57 48.2 74.09L48.2 162.66C48.2 168.19 52.68 172.66 58.2 172.66C63.72 172.66 68.2 168.19 68.2 162.66L68.2 84.09L97.87 84.09L97.87 329.11L68.2 329.11L68.2 250.64C68.2 245.11 63.72 240.64 58.2 240.64C52.68 240.64 48.2 245.11 48.2 250.64L48.2 339.11C48.2 344.63 52.68 349.11 58.2 349.11L107.87 349.11C113.39 349.11 117.87 344.63 117.87 339.11L117.87 74.09C117.87 68.57 113.39 64.09 107.87 64.09L107.87 64.09Z" />
			<path id="Layer" class="shp0" d="M407.53 290.43C413.05 290.43 417.53 285.95 417.53 280.43L417.53 74.09C417.53 68.57 413.05 64.09 407.53 64.09C402.01 64.09 397.53 68.57 397.53 74.09L397.53 280.43C397.53 285.95 402.01 290.43 407.53 290.43Z" />
			<path id="Layer" class="shp0" d="M454.32 349.11C459.85 349.11 464.32 344.63 464.32 339.11L464.32 74.1C464.32 68.57 459.85 64.1 454.32 64.1C448.8 64.1 444.32 68.57 444.32 74.1L444.32 339.11C444.32 344.63 448.8 349.11 454.32 349.11Z" />
			<path id="Layer" class="shp0" d="M49.28 374.34L20 374.34L20 336.75C20 331.23 15.52 326.75 10 326.75C4.48 326.75 0 331.23 0 336.75L0 384.34C0 389.87 4.48 394.34 10 394.34L49.28 394.34C54.8 394.34 59.28 389.87 59.28 384.34C59.28 378.82 54.8 374.34 49.28 374.34Z" />
			<path id="Layer" class="shp0" d="M10 88.74C15.52 88.74 20 84.26 20 78.74L20 41.14L49.28 41.14C54.8 41.14 59.28 36.67 59.28 31.14C59.28 25.62 54.8 21.14 49.28 21.14L10 21.14C4.48 21.14 0 25.62 0 31.14L0 78.74C0 84.26 4.48 88.74 10 88.74Z" />
			<path id="Layer" class="shp0" d="M502 326.75C496.48 326.75 492 331.23 492 336.75L492 374.34L462.72 374.34C457.2 374.34 452.72 378.82 452.72 384.34C452.72 389.87 457.2 394.34 462.72 394.34L502 394.34C507.52 394.34 512 389.87 512 384.34L512 336.75C512 331.23 507.52 326.75 502 326.75Z" />
			<path id="Layer" class="shp0" d="M502 21.14L462.72 21.14C457.2 21.14 452.72 25.62 452.72 31.14C452.72 36.67 457.2 41.14 462.72 41.14L492 41.14L492 78.74C492 84.26 496.48 88.74 502 88.74C507.52 88.74 512 84.26 512 78.74L512 31.14C512 25.62 507.52 21.14 502 21.14L502 21.14Z" />
			<path id="Layer" class="shp0" d="M48.97 210.43C51.06 215.46 56.99 217.92 62.03 215.84C67.05 213.76 69.52 207.79 67.43 202.78C65.33 197.74 59.43 195.28 54.38 197.37C49.33 199.45 46.9 205.39 48.97 210.43L48.97 210.43Z" />
		</g>
	</g>
</svg>